<svg width="243" height="169" viewBox="0 0 243 169" fill="none" xmlns="http://www.w3.org/2000/svg">
<line x1="14.9476" y1="43.3699" x2="32.1473" y2="53.3002" stroke="#FFBA3B" stroke-width="4" stroke-linecap="round"/>
<line x1="2" y1="-2" x2="22.524" y2="-2" transform="matrix(0.998982 -0.0451014 -0.042871 0.999081 0 85.625)" stroke="#FFBA3B" stroke-width="4" stroke-linecap="round"/>
<line x1="2" y1="-2" x2="23.7999" y2="-2" transform="matrix(0.843794 -0.536668 0.460432 0.887695 8.69287 126.204)" stroke="#FFBA3B" stroke-width="4" stroke-linecap="round"/>
<line x1="106.162" y1="29.3819" x2="117.37" y2="9.97005" stroke="#FFBA3B" stroke-width="4" stroke-linecap="round"/>
<line x1="2" y1="-2" x2="23.7999" y2="-2" transform="matrix(0.042871 -0.999081 0.998982 -0.0451014 80.4504 25.7762)" stroke="#FFBA3B" stroke-width="4" stroke-linecap="round"/>
<line x1="2" y1="-2" x2="22.524" y2="-2" transform="matrix(-0.460432 -0.887695 0.843794 -0.536668 53.3596 34.5308)" stroke="#FFBA3B" stroke-width="4" stroke-linecap="round"/>
<circle cx="75.7837" cy="77.2379" r="45" fill="url(#paint0_linear_2_216)"/>
<path opacity="0.5" d="M198.123 122C189.984 122 185.72 122 177.912 122C170.781 122 165 116.187 165 109.016C165 101.845 170.781 96.0323 177.912 96.0323C179.513 96.0323 181.046 96.3252 182.461 96.8607C185.282 91.0235 191.235 87 198.123 87C207.456 87 215.073 94.3873 215.507 103.664C216.71 103.113 218.048 102.806 219.456 102.806C224.727 102.806 229 107.103 229 112.403C229 117.703 224.727 122 219.456 122C211.892 122 206.058 122 198.123 122Z" fill="white"/>
<g filter="url(#filter0_b_2_216)">
<path d="M51.2335 168.238C29.9983 168.238 12.7837 150.955 12.7837 129.635C12.7837 108.316 29.9983 91.0329 51.2335 91.0329C55.7474 91.0329 60.0795 91.8138 64.1032 93.2484C71.7313 71.1245 92.6664 55.2379 117.297 55.2379C144.81 55.2379 167.712 75.0597 172.607 101.255C174.29 100.994 176.013 100.859 177.768 100.859C192.416 100.859 204.871 110.281 209.45 123.418C212.461 122.003 215.821 121.213 219.364 121.213C232.298 121.213 242.784 131.74 242.784 144.725C242.784 157.711 234.784 169.238 216.364 168.238C160.321 168.238 107.277 168.238 51.2335 168.238Z" fill="white" fill-opacity="0.85"/>
</g>
<defs>
<filter id="filter0_b_2_216" x="-57.2163" y="-14.7621" width="370" height="253.061" filterUnits="userSpaceOnUse" color-interpolation-filters="sRGB">
<feFlood flood-opacity="0" result="BackgroundImageFix"/>
<feGaussianBlur in="BackgroundImage" stdDeviation="35"/>
<feComposite in2="SourceAlpha" operator="in" result="effect1_backgroundBlur_2_216"/>
<feBlend mode="normal" in="SourceGraphic" in2="effect1_backgroundBlur_2_216" result="shape"/>
</filter>
<linearGradient id="paint0_linear_2_216" x1="47.2837" y1="46.7379" x2="97.2837" y2="107.738" gradientUnits="userSpaceOnUse">
<stop stop-color="#FFAE35"/>
<stop offset="1" stop-color="#FFCA41"/>
</linearGradient>
</defs>
</svg>
