<svg width="57" height="50" viewBox="0 0 57 50" fill="none" xmlns="http://www.w3.org/2000/svg">
<path fill-rule="evenodd" clip-rule="evenodd" d="M27.9553 26.2917C29.6348 20.0813 35.9884 16.3736 42.1464 18.0102C45.1036 18.7962 47.6193 20.7346 49.1401 23.3992C50.6608 26.0638 51.062 29.2362 50.2555 32.2185C48.576 38.4289 42.2224 42.1366 36.0644 40.4999C29.9064 38.8633 26.2758 32.502 27.9553 26.2917ZM47.6564 41.2279L50.254 44.7851L50.3117 44.8005C50.8003 45.6566 50.5032 46.7552 49.6481 47.2542C48.793 47.7532 47.7037 47.4637 47.2151 46.6075L45.3115 42.7237C45.1217 42.3926 45.0715 41.998 45.1718 41.627C45.2721 41.2561 45.5147 40.9393 45.8461 40.7468C46.4832 40.3824 47.2886 40.5964 47.6564 41.2279Z" fill="url(#paint0_linear_2_268)"/>
<g filter="url(#filter0_f_2_268)">
<path d="M40.7594 23.1315C37.4025 22.2384 33.9408 24.2563 33.0275 27.6386C32.1141 31.021 34.095 34.4869 37.4518 35.3799C40.8087 36.273 44.2704 34.2551 45.1838 30.8727C45.6224 29.2485 45.4027 27.5204 44.5729 26.0686C43.7432 24.6169 42.3714 23.5603 40.7594 23.1315Z" fill="#39AFFD"/>
</g>
<g filter="url(#filter1_b_2_268)">
<g filter="url(#filter2_b_2_268)">
<mask id="path-3-outside-1_2_268" maskUnits="userSpaceOnUse" x="-2.05666" y="-1.22832" width="52.7647" height="52.5684" fill="black">
<rect fill="white" x="-2.05666" y="-1.22832" width="52.7647" height="52.5684"/>
<path fill-rule="evenodd" clip-rule="evenodd" d="M43.3232 16.7731C40.818 7.50958 31.3409 1.97904 22.1554 4.4203C17.7444 5.59263 13.992 8.48411 11.7236 12.4586C9.45522 16.4332 8.85671 21.1652 10.0597 25.6137C12.5649 34.8772 22.0421 40.4078 31.2275 37.9665C40.413 35.5252 45.8284 26.0366 43.3232 16.7731ZM13.9373 39.0533L10.0627 44.3594L9.97672 44.3823C9.24788 45.6593 9.69103 47.2979 10.9665 48.0422C12.242 48.7866 13.8668 48.3547 14.5957 47.0777L17.4352 41.2844C17.7182 40.7906 17.7931 40.202 17.6435 39.6487C17.4939 39.0954 17.1319 38.6229 16.6377 38.3356C15.6874 37.7921 14.4859 38.1114 13.9373 39.0533Z"/>
</mask>
<path fill-rule="evenodd" clip-rule="evenodd" d="M43.3232 16.7731C40.818 7.50958 31.3409 1.97904 22.1554 4.4203C17.7444 5.59263 13.992 8.48411 11.7236 12.4586C9.45522 16.4332 8.85671 21.1652 10.0597 25.6137C12.5649 34.8772 22.0421 40.4078 31.2275 37.9665C40.413 35.5252 45.8284 26.0366 43.3232 16.7731ZM13.9373 39.0533L10.0627 44.3594L9.97672 44.3823C9.24788 45.6593 9.69103 47.2979 10.9665 48.0422C12.242 48.7866 13.8668 48.3547 14.5957 47.0777L17.4352 41.2844C17.7182 40.7906 17.7931 40.202 17.6435 39.6487C17.4939 39.0954 17.1319 38.6229 16.6377 38.3356C15.6874 37.7921 14.4859 38.1114 13.9373 39.0533Z" fill="#78C9FF"/>
<path d="M22.1554 4.4203L21.895 3.45481L22.1554 4.4203ZM43.3232 16.7731L44.2895 16.5157L43.3232 16.7731ZM11.7236 12.4586L10.8535 11.962L10.8535 11.962L11.7236 12.4586ZM10.0597 25.6137L11.026 25.3562L10.0597 25.6137ZM31.2275 37.9665L30.9671 37.001L31.2275 37.9665ZM10.0627 44.3594L10.8723 44.9496C10.7378 45.1337 10.544 45.2662 10.3232 45.3249L10.0627 44.3594ZM13.9373 39.0533L14.8031 39.5575C14.7858 39.5871 14.7671 39.6158 14.7469 39.6435L13.9373 39.0533ZM9.97672 44.3823L9.10662 43.8856C9.23871 43.6542 9.45823 43.4853 9.71627 43.4168L9.97672 44.3823ZM10.9665 48.0422L10.4634 48.9043L10.9665 48.0422ZM14.5957 47.0777L15.495 47.5191C15.4859 47.5378 15.4761 47.5562 15.4658 47.5743L14.5957 47.0777ZM17.4352 41.2844L16.5358 40.8431C16.5452 40.8238 16.5553 40.8049 16.5659 40.7863L17.4352 41.2844ZM17.6435 39.6487L16.6772 39.9062L16.6772 39.9062L17.6435 39.6487ZM16.6377 38.3356L17.1332 37.4692L17.1393 37.4727L16.6377 38.3356ZM21.895 3.45481C31.6227 0.869434 41.6426 6.728 44.2895 16.5157L42.3569 17.0306C39.9935 8.29116 31.0591 3.08865 22.4159 5.38578L21.895 3.45481ZM10.8535 11.962C13.2533 7.75721 17.2246 4.69608 21.895 3.45481L22.4159 5.38578C18.2642 6.48919 14.7307 9.21102 12.5937 12.9553L10.8535 11.962ZM9.09346 25.8711C7.82199 21.1696 8.45392 16.1664 10.8535 11.962L12.5937 12.9553C10.4565 16.6999 9.89143 21.1608 11.026 25.3562L9.09346 25.8711ZM31.488 38.932C21.7603 41.5174 11.7404 35.6588 9.09346 25.8711L11.026 25.3562C13.3895 34.0956 22.3239 39.2982 30.9671 37.001L31.488 38.932ZM44.2895 16.5157C46.9366 26.3038 41.2162 36.3465 31.488 38.932L30.9671 37.001C39.6098 34.704 44.7202 25.7695 42.3569 17.0306L44.2895 16.5157ZM9.25318 43.7692L13.1278 38.4632L14.7469 39.6435L10.8723 44.9496L9.25318 43.7692ZM9.71627 43.4168L9.80226 43.3939L10.3232 45.3249L10.2372 45.3477L9.71627 43.4168ZM10.4634 48.9043C8.71378 47.8833 8.1061 45.6387 9.10662 43.8856L10.8468 44.8789C10.3897 45.6799 10.6683 46.7125 11.4696 47.1802L10.4634 48.9043ZM15.4658 47.5743C14.4615 49.3339 12.2195 49.9291 10.4634 48.9043L11.4696 47.1802C12.2645 47.644 13.2721 47.3755 13.7256 46.5811L15.4658 47.5743ZM18.3345 41.7258L15.495 47.5191L13.6963 46.6363L16.5358 40.8431L18.3345 41.7258ZM18.6098 39.3912C18.828 40.1982 18.7193 41.0586 18.3044 41.7826L16.5659 40.7863C16.717 40.5226 16.7582 40.2058 16.6772 39.9062L18.6098 39.3912ZM17.1393 37.4727C17.8634 37.8936 18.3916 38.5843 18.6098 39.3912L16.6772 39.9062C16.5961 39.6064 16.4005 39.3522 16.1361 39.1986L17.1393 37.4727ZM13.0716 38.5491C13.8964 37.133 15.7058 36.6528 17.1332 37.4692L16.1422 39.2021C15.669 38.9314 15.0755 39.0898 14.8031 39.5575L13.0716 38.5491Z" fill="url(#paint1_linear_2_268)" mask="url(#path-3-outside-1_2_268)"/>
</g>
</g>
<defs>
<filter id="filter0_f_2_268" x="24.9783" y="15.0934" width="28.2531" height="28.3246" filterUnits="userSpaceOnUse" color-interpolation-filters="sRGB">
<feFlood flood-opacity="0" result="BackgroundImageFix"/>
<feBlend mode="normal" in="SourceGraphic" in2="BackgroundImageFix" result="shape"/>
<feGaussianBlur stdDeviation="3.91332" result="effect1_foregroundBlur_2_268"/>
</filter>
<filter id="filter1_b_2_268" x="-4.07134" y="-9.67881" width="61.5299" height="71.6074" filterUnits="userSpaceOnUse" color-interpolation-filters="sRGB">
<feFlood flood-opacity="0" result="BackgroundImageFix"/>
<feGaussianBlur in="BackgroundImage" stdDeviation="6.26132"/>
<feComposite in2="SourceAlpha" operator="in" result="effect1_backgroundBlur_2_268"/>
<feBlend mode="normal" in="SourceGraphic" in2="effect1_backgroundBlur_2_268" result="shape"/>
</filter>
<filter id="filter2_b_2_268" x="-4.07134" y="-9.67881" width="61.5299" height="71.6074" filterUnits="userSpaceOnUse" color-interpolation-filters="sRGB">
<feFlood flood-opacity="0" result="BackgroundImageFix"/>
<feGaussianBlur in="BackgroundImage" stdDeviation="6.26132"/>
<feComposite in2="SourceAlpha" operator="in" result="effect1_backgroundBlur_2_268"/>
<feBlend mode="normal" in="SourceGraphic" in2="effect1_backgroundBlur_2_268" result="shape"/>
</filter>
<linearGradient id="paint0_linear_2_268" x1="57.1235" y1="21.9947" x2="22.342" y2="37.5754" gradientUnits="userSpaceOnUse">
<stop stop-color="#39AFFD"/>
<stop offset="1" stop-color="#B2E1FF"/>
</linearGradient>
<linearGradient id="paint1_linear_2_268" x1="33.8299" y1="6.14434" x2="9.89512" y2="46.599" gradientUnits="userSpaceOnUse">
<stop stop-color="white" stop-opacity="0.25"/>
<stop offset="1" stop-color="white" stop-opacity="0"/>
</linearGradient>
</defs>
</svg>
